<svg width="117" height="34" viewBox="0 -4 117 42" fill="none" xmlns="http://www.w3.org/2000/svg">
<path opacity="0.8" d="M0.449219 31.7482C0.449219 32.9344 1.69797 33.5389 2.44564 32.7147L21.5319 11.6725L16.1979 0.784424L0.449219 0.784424L0.449219 31.7482Z" fill="url(#paint0_linear_2668_10504)"/>
<path opacity="0.8" d="M32.2531 2.35149C32.2531 1.16609 31.0059 0.561225 30.2578 1.38383L11.1685 22.3747L16.5044 33.2627H32.2531V2.35149Z" fill="url(#paint1_linear_2668_10504)"/>
<path opacity="0.8" d="M32.2529 33.2626L16.2961 0.784424L0.449219 0.784424L16.5042 33.2626H32.2529Z" fill="url(#paint2_linear_2668_10504)"/>
<path d="M45 10.7861V2.27539C45 2.09766 45.0615 1.94499 45.1846 1.81738C45.3076 1.68978 45.458 1.62598 45.6357 1.62598H47.6455C47.805 1.62598 47.9736 1.68978 48.1514 1.81738C48.3291 1.94499 48.4749 2.09766 48.5889 2.27539L52.7178 8.62598V2.26172C52.7178 2.08398 52.7793 1.93359 52.9023 1.81055C53.0299 1.6875 53.1826 1.62598 53.3604 1.62598H54.5361C54.7139 1.62598 54.8643 1.6875 54.9873 1.81055C55.1149 1.93359 55.1787 2.08854 55.1787 2.27539V10.7861C55.1787 10.9639 55.1149 11.1165 54.9873 11.2441C54.8643 11.3672 54.7139 11.4287 54.5361 11.4287H52.2666C52.0889 11.4287 51.9066 11.3672 51.7197 11.2441C51.5329 11.1165 51.3848 10.9639 51.2754 10.7861L47.4951 4.9209V10.7861C47.4951 10.9639 47.4313 11.1165 47.3037 11.2441C47.1807 11.3672 47.0303 11.4287 46.8525 11.4287H45.6494C45.4717 11.4287 45.319 11.3672 45.1914 11.2441C45.0638 11.1165 45 10.9639 45 10.7861Z" fill="#25292F"/>
<path d="M57.1406 10.7725V2.26172C57.1406 2.08398 57.2044 1.93359 57.332 1.81055C57.4596 1.6875 57.6123 1.62598 57.79 1.62598H65.6719C65.8496 1.62598 66 1.68978 66.123 1.81738C66.2507 1.94499 66.3145 2.09766 66.3145 2.27539V2.91797C66.3145 3.0957 66.2507 3.24837 66.123 3.37598C66 3.49902 65.8496 3.56055 65.6719 3.56055H59.7178V5.9668H64.5645C64.7422 5.9668 64.8926 6.0306 65.0156 6.1582C65.1432 6.28581 65.207 6.4362 65.207 6.60938V7.25879C65.207 7.43652 65.1432 7.58919 65.0156 7.7168C64.8926 7.83984 64.7422 7.90137 64.5645 7.90137H59.7178V10.7725C59.7178 10.9593 59.654 11.1165 59.5264 11.2441C59.4033 11.3672 59.2529 11.4287 59.0752 11.4287H57.79C57.6123 11.4287 57.4596 11.3672 57.332 11.2441C57.2044 11.1165 57.1406 10.9593 57.1406 10.7725Z" fill="#25292F"/>
<path d="M66.5947 2.91797V2.27539C66.5947 2.08854 66.6562 1.93359 66.7793 1.81055C66.9023 1.6875 67.0573 1.62598 67.2441 1.62598H75.9189C76.1058 1.62598 76.2607 1.6875 76.3838 1.81055C76.5068 1.93359 76.5684 2.08854 76.5684 2.27539V2.91797C76.5684 3.10482 76.5068 3.25977 76.3838 3.38281C76.2607 3.5013 76.1058 3.56055 75.9189 3.56055H72.8701V10.7998C72.8701 10.9775 72.8063 11.1279 72.6787 11.251C72.5557 11.3695 72.4053 11.4287 72.2275 11.4287H70.9355C70.7578 11.4287 70.6051 11.3695 70.4775 11.251C70.3545 11.1279 70.293 10.9775 70.293 10.7998V3.56055H67.2441C67.0573 3.56055 66.9023 3.5013 66.7793 3.38281C66.6562 3.25977 66.5947 3.10482 66.5947 2.91797Z" fill="#25292F"/>
<path d="M44.1968 27.3796C44.1968 26.9763 44.3164 26.6892 44.5557 26.5183C44.7949 26.3406 45.0273 26.2517 45.2529 26.2517H46.4731C47.0884 26.2517 47.5566 26.5867 47.8779 27.2566C48.1992 27.9265 48.9204 28.2615 50.0415 28.2615L53.6304 28.3333C54.8335 28.3333 55.4351 27.9402 55.4351 27.1541C55.4351 26.5593 54.7002 26.0911 53.2305 25.7493C52.5742 25.592 51.8496 25.4382 51.0566 25.2878C50.2637 25.1306 49.4741 24.9358 48.688 24.7034C47.9087 24.4709 47.1909 24.1975 46.5347 23.8831C45.8784 23.5686 45.3452 23.1379 44.9351 22.5911C44.5317 22.0374 44.3301 21.3879 44.3301 20.6428C44.3301 19.2688 44.8188 18.2126 45.7964 17.4744C46.7739 16.7292 48.4556 16.3567 50.8413 16.3567L53.4458 16.4182C54.8472 16.4182 56.1084 16.7805 57.2295 17.5051C58.3574 18.2229 58.9214 19.1218 58.9214 20.2019C58.9214 20.6052 58.8018 20.8958 58.5625 21.0735C58.3232 21.2512 58.0942 21.3401 57.8755 21.3401H56.6553C56.04 21.3401 55.5718 21.0051 55.2505 20.3352C54.9292 19.6584 54.208 19.3201 53.0869 19.3201L50.0005 19.2585C48.7974 19.2585 48.1958 19.6516 48.1958 20.4377C48.1958 20.8684 48.5752 21.2205 49.334 21.4939C50.0996 21.7673 51.0225 22.01 52.1025 22.2219C53.1895 22.427 54.2798 22.6765 55.3735 22.9705C56.4673 23.2644 57.3936 23.7498 58.1523 24.4265C58.918 25.0964 59.3008 25.9338 59.3008 26.9387C59.3008 28.3127 58.8086 29.3723 57.8242 30.1174C56.8467 30.8557 55.1685 31.2249 52.7896 31.2249L49.6826 31.1633C48.2812 31.1633 47.0166 30.8044 45.8887 30.0867C44.7607 29.3621 44.1968 28.4597 44.1968 27.3796Z" fill="#7452FA"/>
<path d="M66.5503 28.9177L67.9551 28.7947H68.3345C68.519 28.7947 68.6694 28.8528 68.7856 28.969C68.9087 29.0852 68.9702 29.2356 68.9702 29.4202V30.5173C68.9702 30.6677 68.9087 30.8044 68.7856 30.9275C68.6694 31.0437 68.519 31.1155 68.3345 31.1428C67.6372 31.2795 66.728 31.3479 65.6069 31.3479C62.6675 31.3479 61.1978 29.8098 61.1978 26.7336V17.0745C61.1978 16.8899 61.2559 16.7395 61.3721 16.6233C61.4951 16.5002 61.6455 16.4387 61.8232 16.4387H64.1201C64.2979 16.4387 64.4448 16.5002 64.561 16.6233C64.6841 16.7395 64.7456 16.8899 64.7456 17.0745V20.4993H67.6064C67.7842 20.4993 67.9312 20.5574 68.0474 20.6736C68.1704 20.7898 68.2319 20.9402 68.2319 21.1248V22.345C68.2319 22.5295 68.1704 22.6799 68.0474 22.7961C67.9312 22.9124 67.7842 22.9705 67.6064 22.9705H64.7456V26.7336C64.7456 27.4309 64.9097 27.9709 65.2378 28.3538C65.5659 28.7297 66.0034 28.9177 66.5503 28.9177Z" fill="#7452FA"/>
<path d="M70.5493 26.4158V20.5403C70.5493 20.3557 70.6074 20.2053 70.7236 20.0891C70.8467 19.9661 70.9971 19.9045 71.1748 19.9045H73.4717C73.6494 19.9045 73.7964 19.9661 73.9126 20.0891C74.0356 20.2053 74.0972 20.3557 74.0972 20.5403V26.4158C74.0972 28.0564 74.7466 28.8767 76.0454 28.8767C76.8999 28.8767 77.8193 28.3845 78.8037 27.4001V20.5403C78.8037 20.3557 78.8618 20.2053 78.978 20.0891C79.1011 19.9661 79.2515 19.9045 79.4292 19.9045H81.7158C81.9004 19.9045 82.0508 19.9661 82.167 20.0891C82.29 20.2053 82.3516 20.3557 82.3516 20.5403V30.5173C82.3516 30.6951 82.29 30.8455 82.167 30.9685C82.0508 31.0847 81.9004 31.1428 81.7158 31.1428H79.4292C79.2515 31.1428 79.1011 31.0847 78.978 30.9685C78.8618 30.8455 78.8037 30.6951 78.8037 30.5173V29.8611C77.6279 30.8523 76.3735 31.3479 75.0405 31.3479C73.7144 31.3479 72.6343 30.9446 71.8003 30.1379C70.9663 29.3245 70.5493 28.0837 70.5493 26.4158Z" fill="#7452FA"/>
<path d="M89.2729 31.3479C87.8442 31.3479 86.6479 30.8455 85.6841 29.8406C84.7271 28.8357 84.2485 27.3967 84.2485 25.5237C84.2485 23.6438 84.7441 22.2048 85.7354 21.2068C86.7334 20.2019 88.0732 19.6995 89.7549 19.6995C90.623 19.6995 91.6108 19.8738 92.7183 20.2224V17.0745C92.7183 16.8899 92.7764 16.7395 92.8926 16.6233C93.0156 16.5002 93.166 16.4387 93.3438 16.4387H95.6304C95.8149 16.4387 95.9653 16.5002 96.0815 16.6233C96.2046 16.7395 96.2661 16.8899 96.2661 17.0745V30.5173C96.2661 30.6951 96.2046 30.8455 96.0815 30.9685C95.9653 31.0847 95.8149 31.1428 95.6304 31.1428H93.6616C93.4771 31.1428 93.3267 31.0847 93.2104 30.9685C93.0942 30.8455 93.0361 30.6951 93.0361 30.5173V30.1995C91.9561 30.9651 90.7017 31.3479 89.2729 31.3479ZM90.4932 22.1809C89.5498 22.1809 88.8833 22.4475 88.4937 22.9807C88.104 23.5071 87.9092 24.3547 87.9092 25.5237C87.9092 26.6926 88.0938 27.5437 88.4629 28.0769C88.832 28.6101 89.3857 28.8767 90.124 28.8767C90.8691 28.8767 91.7339 28.5691 92.7183 27.9539V22.5911C91.8364 22.3176 91.0947 22.1809 90.4932 22.1809Z" fill="#7452FA"/>
<path d="M98.7886 17.7615V17.4128C98.7886 17.0505 98.8911 16.7634 99.0962 16.5515C99.3081 16.3396 99.5986 16.2336 99.9678 16.2336H101.239C101.602 16.2336 101.889 16.3396 102.101 16.5515C102.312 16.7566 102.418 17.0437 102.418 17.4128V17.7615C102.418 18.1238 102.312 18.4109 102.101 18.6228C101.896 18.8347 101.608 18.9407 101.239 18.9407H99.9678C99.6055 18.9407 99.3184 18.8347 99.1064 18.6228C98.8945 18.4109 98.7886 18.1238 98.7886 17.7615ZM98.8296 30.5173V20.7864C98.8296 20.6018 98.8877 20.4514 99.0039 20.3352C99.127 20.219 99.2773 20.1609 99.4551 20.1609H101.752C101.937 20.1609 102.087 20.2224 102.203 20.3455C102.319 20.4617 102.377 20.6086 102.377 20.7864V30.5173C102.377 30.7019 102.316 30.8523 102.193 30.9685C102.077 31.0847 101.93 31.1428 101.752 31.1428H99.4551C99.2705 31.1428 99.1201 31.0847 99.0039 30.9685C98.8877 30.8523 98.8296 30.7019 98.8296 30.5173Z" fill="#7452FA"/>
<path d="M105.905 29.8713C104.838 28.887 104.305 27.4377 104.305 25.5237C104.305 23.6028 104.838 22.1536 105.905 21.176C106.971 20.1917 108.502 19.6995 110.499 19.6995C112.501 19.6995 114.036 20.1917 115.103 21.176C116.169 22.1536 116.702 23.6028 116.702 25.5237C116.702 27.4377 116.169 28.887 115.103 29.8713C114.036 30.8557 112.501 31.3479 110.499 31.3479C108.502 31.3479 106.971 30.8557 105.905 29.8713ZM108.499 22.8577C108.075 23.4114 107.863 24.2966 107.863 25.5134C107.863 26.7302 108.075 27.6189 108.499 28.1794C108.923 28.74 109.589 29.0203 110.499 29.0203C111.415 29.0203 112.084 28.74 112.508 28.1794C112.939 27.6189 113.154 26.7302 113.154 25.5134C113.154 24.2966 112.939 23.4114 112.508 22.8577C112.084 22.304 111.415 22.0271 110.499 22.0271C109.589 22.0271 108.923 22.304 108.499 22.8577Z" fill="#7452FA"/>
<defs>
<linearGradient id="paint0_linear_2668_10504" x1="15.9859" y1="0.869541" x2="-3.95333" y2="30.8287" gradientUnits="userSpaceOnUse">
<stop stop-color="#FF44B4"/>
<stop offset="1" stop-color="#FFAB48"/>
</linearGradient>
<linearGradient id="paint1_linear_2668_10504" x1="32.2806" y1="0.869651" x2="12.6461" y2="31.116" gradientUnits="userSpaceOnUse">
<stop stop-color="#44B3FF"/>
<stop offset="1" stop-color="#A448FF"/>
</linearGradient>
<linearGradient id="paint2_linear_2668_10504" x1="8.9184" y1="0.0855843" x2="28.533" y2="31.8482" gradientUnits="userSpaceOnUse">
<stop stop-color="#FF44A9"/>
<stop offset="1" stop-color="#7452FA"/>
</linearGradient>
</defs>
</svg>
