<svg width="103" height="32" viewBox="0 0 103 32" fill="none" xmlns="http://www.w3.org/2000/svg">
<path opacity="0.8" d="M0 30.3253C0 31.486 1.39415 32.0776 2.22889 31.271L23.5375 10.6806L17.5825 0.0263672H0V30.3253Z" fill="url(#paint0_linear_2668_10504)"/>
<path opacity="0.8" d="M35.507 1.55963C35.507 0.399688 34.1145 -0.192188 33.2794 0.612751L11.9673 21.1529L17.9245 31.8071H35.507V1.55963Z" fill="url(#paint1_linear_2668_10504)"/>
<path opacity="0.8" d="M35.5068 31.8072L17.6921 0.0263672H0L17.9244 31.8072H35.5068Z" fill="url(#paint2_linear_2668_10504)"/>
<path d="M45 23.8201V8.19247C45 7.86611 45.113 7.58577 45.3389 7.35146C45.5649 7.11715 45.841 7 46.1674 7H49.8577C50.1506 7 50.4603 7.11715 50.7866 7.35146C51.113 7.58577 51.3808 7.86611 51.59 8.19247L59.1716 19.8536V8.16736C59.1716 7.841 59.2845 7.56485 59.5105 7.33891C59.7448 7.11297 60.0251 7 60.3515 7H62.5105C62.8368 7 63.113 7.11297 63.3389 7.33891C63.5732 7.56485 63.6904 7.84937 63.6904 8.19247V23.8201C63.6904 24.1464 63.5732 24.4268 63.3389 24.6611C63.113 24.887 62.8368 25 62.5105 25H58.3431C58.0167 25 57.682 24.887 57.3389 24.6611C56.9958 24.4268 56.7239 24.1464 56.523 23.8201L49.5816 13.0502V23.8201C49.5816 24.1464 49.4644 24.4268 49.2301 24.6611C49.0042 24.887 48.728 25 48.4017 25H46.1925C45.8661 25 45.5858 24.887 45.3515 24.6611C45.1172 24.4268 45 24.1464 45 23.8201Z" fill="#25292F"/>
<path d="M67.2929 23.795V8.16736C67.2929 7.841 67.41 7.56485 67.6444 7.33891C67.8787 7.11297 68.159 7 68.4854 7H82.9582C83.2845 7 83.5607 7.11715 83.7866 7.35146C84.0209 7.58577 84.1381 7.86611 84.1381 8.19247V9.37239C84.1381 9.69874 84.0209 9.97908 83.7866 10.2134C83.5607 10.4393 83.2845 10.5523 82.9582 10.5523H72.0251V14.9707H80.9247C81.2511 14.9707 81.5272 15.0879 81.7531 15.3222C81.9875 15.5565 82.1046 15.8326 82.1046 16.1506V17.3431C82.1046 17.6695 81.9875 17.9498 81.7531 18.1841C81.5272 18.41 81.2511 18.523 80.9247 18.523H72.0251V23.795C72.0251 24.1381 71.908 24.4268 71.6736 24.6611C71.4477 24.887 71.1716 25 70.8452 25H68.4854C68.159 25 67.8787 24.887 67.6444 24.6611C67.41 24.4268 67.2929 24.1381 67.2929 23.795Z" fill="#25292F"/>
<path d="M84.6527 9.37239V8.19247C84.6527 7.84937 84.7657 7.56485 84.9916 7.33891C85.2176 7.11297 85.5021 7 85.8452 7H101.774C102.117 7 102.402 7.11297 102.628 7.33891C102.854 7.56485 102.967 7.84937 102.967 8.19247V9.37239C102.967 9.71548 102.854 10 102.628 10.2259C102.402 10.4435 102.117 10.5523 101.774 10.5523H96.1757V23.8452C96.1757 24.1715 96.0586 24.4477 95.8243 24.6736C95.5983 24.8912 95.3222 25 94.9958 25H92.6234C92.2971 25 92.0167 24.8912 91.7824 24.6736C91.5565 24.4477 91.4435 24.1715 91.4435 23.8452V10.5523H85.8452C85.5021 10.5523 85.2176 10.4435 84.9916 10.2259C84.7657 10 84.6527 9.71548 84.6527 9.37239Z" fill="#25292F"/>
<defs>
<linearGradient id="paint0_linear_2668_10504" x1="17.3457" y1="0.109656" x2="-1.06523" y2="31.6713" gradientUnits="userSpaceOnUse">
<stop stop-color="#FF44B4"/>
<stop offset="1" stop-color="#FFAB48"/>
</linearGradient>
<linearGradient id="paint1_linear_2668_10504" x1="35.5377" y1="0.109615" x2="17.4554" y2="31.8904" gradientUnits="userSpaceOnUse">
<stop stop-color="#44B3FF"/>
<stop offset="1" stop-color="#A448FF"/>
</linearGradient>
<linearGradient id="paint2_linear_2668_10504" x1="9.45532" y1="-0.657467" x2="27.4279" y2="32.548" gradientUnits="userSpaceOnUse">
<stop stop-color="#FF44A9"/>
<stop offset="1" stop-color="#7452FA"/>
</linearGradient>
</defs>
</svg>
