<svg width="117" height="32" viewBox="0 -4 117 40" fill="none" xmlns="http://www.w3.org/2000/svg">
<path opacity="0.8" d="M1.62656 31.9253C0.440323 31.9253 -0.164188 30.6765 0.660105 29.9289L21.7023 10.8426L32.5903 16.1766V31.9253H1.62656Z" fill="url(#paint0_linear_2668_10504)"/>
<path opacity="0.8" d="M31.0235 0.121635C32.2089 0.121635 32.8138 1.36888 31.9912 2.11696L11.0003 21.2063L0.112259 15.8703V0.121635H31.0235Z" fill="url(#paint1_linear_2668_10504)"/>
<path opacity="0.8" d="M0.112125 0.121613L32.5903 16.0784V31.9253L0.112125 15.8703V0.121613Z" fill="url(#paint2_linear_2668_10504)"/>
<path d="M45 9.78613V1.27539C45 1.09766 45.0615 0.944987 45.1846 0.817383C45.3076 0.689779 45.458 0.625977 45.6357 0.625977H47.6455C47.805 0.625977 47.9736 0.689779 48.1514 0.817383C48.3291 0.944987 48.4749 1.09766 48.5889 1.27539L52.7178 7.62598V1.26172C52.7178 1.08398 52.7793 0.933594 52.9023 0.810547C53.0299 0.6875 53.1826 0.625977 53.3604 0.625977H54.5361C54.7139 0.625977 54.8643 0.6875 54.9873 0.810547C55.1149 0.933594 55.1787 1.08854 55.1787 1.27539V9.78613C55.1787 9.96387 55.1149 10.1165 54.9873 10.2441C54.8643 10.3672 54.7139 10.4287 54.5361 10.4287H52.2666C52.0889 10.4287 51.9066 10.3672 51.7197 10.2441C51.5329 10.1165 51.3848 9.96387 51.2754 9.78613L47.4951 3.9209V9.78613C47.4951 9.96387 47.4313 10.1165 47.3037 10.2441C47.1807 10.3672 47.0303 10.4287 46.8525 10.4287H45.6494C45.4717 10.4287 45.319 10.3672 45.1914 10.2441C45.0638 10.1165 45 9.96387 45 9.78613Z" fill="#25292F"/>
<path d="M57.1406 9.77246V1.26172C57.1406 1.08398 57.2044 0.933594 57.332 0.810547C57.4596 0.6875 57.6123 0.625977 57.79 0.625977H65.6719C65.8496 0.625977 66 0.689779 66.123 0.817383C66.2507 0.944987 66.3145 1.09766 66.3145 1.27539V1.91797C66.3145 2.0957 66.2507 2.24837 66.123 2.37598C66 2.49902 65.8496 2.56055 65.6719 2.56055H59.7178V4.9668H64.5645C64.7422 4.9668 64.8926 5.0306 65.0156 5.1582C65.1432 5.28581 65.207 5.4362 65.207 5.60938V6.25879C65.207 6.43652 65.1432 6.58919 65.0156 6.7168C64.8926 6.83984 64.7422 6.90137 64.5645 6.90137H59.7178V9.77246C59.7178 9.95931 59.654 10.1165 59.5264 10.2441C59.4033 10.3672 59.2529 10.4287 59.0752 10.4287H57.79C57.6123 10.4287 57.4596 10.3672 57.332 10.2441C57.2044 10.1165 57.1406 9.95931 57.1406 9.77246Z" fill="#25292F"/>
<path d="M66.5947 1.91797V1.27539C66.5947 1.08854 66.6562 0.933594 66.7793 0.810547C66.9023 0.6875 67.0573 0.625977 67.2441 0.625977H75.9189C76.1058 0.625977 76.2607 0.6875 76.3838 0.810547C76.5068 0.933594 76.5684 1.08854 76.5684 1.27539V1.91797C76.5684 2.10482 76.5068 2.25977 76.3838 2.38281C76.2607 2.5013 76.1058 2.56055 75.9189 2.56055H72.8701V9.7998C72.8701 9.97754 72.8063 10.1279 72.6787 10.251C72.5557 10.3695 72.4053 10.4287 72.2275 10.4287H70.9355C70.7578 10.4287 70.6051 10.3695 70.4775 10.251C70.3545 10.1279 70.293 9.97754 70.293 9.7998V2.56055H67.2441C67.0573 2.56055 66.9023 2.5013 66.7793 2.38281C66.6562 2.25977 66.5947 2.10482 66.5947 1.91797Z" fill="#25292F"/>
<path d="M44.1968 26.3796C44.1968 25.9763 44.3164 25.6892 44.5557 25.5183C44.7949 25.3406 45.0273 25.2517 45.2529 25.2517H46.4731C47.0884 25.2517 47.5566 25.5867 47.8779 26.2566C48.1992 26.9265 48.9204 27.2615 50.0415 27.2615L53.6304 27.3333C54.8335 27.3333 55.4351 26.9402 55.4351 26.1541C55.4351 25.5593 54.7002 25.0911 53.2305 24.7493C52.5742 24.592 51.8496 24.4382 51.0566 24.2878C50.2637 24.1306 49.4741 23.9358 48.688 23.7034C47.9087 23.4709 47.1909 23.1975 46.5347 22.8831C45.8784 22.5686 45.3452 22.1379 44.9351 21.5911C44.5317 21.0374 44.3301 20.3879 44.3301 19.6428C44.3301 18.2688 44.8188 17.2126 45.7964 16.4744C46.7739 15.7292 48.4556 15.3567 50.8413 15.3567L53.4458 15.4182C54.8472 15.4182 56.1084 15.7805 57.2295 16.5051C58.3574 17.2229 58.9214 18.1218 58.9214 19.2019C58.9214 19.6052 58.8018 19.8958 58.5625 20.0735C58.3232 20.2512 58.0942 20.3401 57.8755 20.3401H56.6553C56.04 20.3401 55.5718 20.0051 55.2505 19.3352C54.9292 18.6584 54.208 18.3201 53.0869 18.3201L50.0005 18.2585C48.7974 18.2585 48.1958 18.6516 48.1958 19.4377C48.1958 19.8684 48.5752 20.2205 49.334 20.4939C50.0996 20.7673 51.0225 21.01 52.1025 21.2219C53.1895 21.427 54.2798 21.6765 55.3735 21.9705C56.4673 22.2644 57.3936 22.7498 58.1523 23.4265C58.918 24.0964 59.3008 24.9338 59.3008 25.9387C59.3008 27.3127 58.8086 28.3723 57.8242 29.1174C56.8467 29.8557 55.1685 30.2249 52.7896 30.2249L49.6826 30.1633C48.2812 30.1633 47.0166 29.8044 45.8887 29.0867C44.7607 28.3621 44.1968 27.4597 44.1968 26.3796Z" fill="#7452FA"/>
<path d="M66.5503 27.9177L67.9551 27.7947H68.3345C68.519 27.7947 68.6694 27.8528 68.7856 27.969C68.9087 28.0852 68.9702 28.2356 68.9702 28.4202V29.5173C68.9702 29.6677 68.9087 29.8044 68.7856 29.9275C68.6694 30.0437 68.519 30.1155 68.3345 30.1428C67.6372 30.2795 66.728 30.3479 65.6069 30.3479C62.6675 30.3479 61.1978 28.8098 61.1978 25.7336V16.0745C61.1978 15.8899 61.2559 15.7395 61.3721 15.6233C61.4951 15.5002 61.6455 15.4387 61.8232 15.4387H64.1201C64.2979 15.4387 64.4448 15.5002 64.561 15.6233C64.6841 15.7395 64.7456 15.8899 64.7456 16.0745V19.4993H67.6064C67.7842 19.4993 67.9312 19.5574 68.0474 19.6736C68.1704 19.7898 68.2319 19.9402 68.2319 20.1248V21.345C68.2319 21.5295 68.1704 21.6799 68.0474 21.7961C67.9312 21.9124 67.7842 21.9705 67.6064 21.9705H64.7456V25.7336C64.7456 26.4309 64.9097 26.9709 65.2378 27.3538C65.5659 27.7297 66.0034 27.9177 66.5503 27.9177Z" fill="#7452FA"/>
<path d="M70.5493 25.4158V19.5403C70.5493 19.3557 70.6074 19.2053 70.7236 19.0891C70.8467 18.9661 70.9971 18.9045 71.1748 18.9045H73.4717C73.6494 18.9045 73.7964 18.9661 73.9126 19.0891C74.0356 19.2053 74.0972 19.3557 74.0972 19.5403V25.4158C74.0972 27.0564 74.7466 27.8767 76.0454 27.8767C76.8999 27.8767 77.8193 27.3845 78.8037 26.4001V19.5403C78.8037 19.3557 78.8618 19.2053 78.978 19.0891C79.1011 18.9661 79.2515 18.9045 79.4292 18.9045H81.7158C81.9004 18.9045 82.0508 18.9661 82.167 19.0891C82.29 19.2053 82.3516 19.3557 82.3516 19.5403V29.5173C82.3516 29.6951 82.29 29.8455 82.167 29.9685C82.0508 30.0847 81.9004 30.1428 81.7158 30.1428H79.4292C79.2515 30.1428 79.1011 30.0847 78.978 29.9685C78.8618 29.8455 78.8037 29.6951 78.8037 29.5173V28.8611C77.6279 29.8523 76.3735 30.3479 75.0405 30.3479C73.7144 30.3479 72.6343 29.9446 71.8003 29.1379C70.9663 28.3245 70.5493 27.0837 70.5493 25.4158Z" fill="#7452FA"/>
<path d="M89.2729 30.3479C87.8442 30.3479 86.6479 29.8455 85.6841 28.8406C84.7271 27.8357 84.2485 26.3967 84.2485 24.5237C84.2485 22.6438 84.7441 21.2048 85.7354 20.2068C86.7334 19.2019 88.0732 18.6995 89.7549 18.6995C90.623 18.6995 91.6108 18.8738 92.7183 19.2224V16.0745C92.7183 15.8899 92.7764 15.7395 92.8926 15.6233C93.0156 15.5002 93.166 15.4387 93.3438 15.4387H95.6304C95.8149 15.4387 95.9653 15.5002 96.0815 15.6233C96.2046 15.7395 96.2661 15.8899 96.2661 16.0745V29.5173C96.2661 29.6951 96.2046 29.8455 96.0815 29.9685C95.9653 30.0847 95.8149 30.1428 95.6304 30.1428H93.6616C93.4771 30.1428 93.3267 30.0847 93.2104 29.9685C93.0942 29.8455 93.0361 29.6951 93.0361 29.5173V29.1995C91.9561 29.9651 90.7017 30.3479 89.2729 30.3479ZM90.4932 21.1809C89.5498 21.1809 88.8833 21.4475 88.4937 21.9807C88.104 22.5071 87.9092 23.3547 87.9092 24.5237C87.9092 25.6926 88.0938 26.5437 88.4629 27.0769C88.832 27.6101 89.3857 27.8767 90.124 27.8767C90.8691 27.8767 91.7339 27.5691 92.7183 26.9539V21.5911C91.8364 21.3176 91.0947 21.1809 90.4932 21.1809Z" fill="#7452FA"/>
<path d="M98.7886 16.7615V16.4128C98.7886 16.0505 98.8911 15.7634 99.0962 15.5515C99.3081 15.3396 99.5986 15.2336 99.9678 15.2336H101.239C101.602 15.2336 101.889 15.3396 102.101 15.5515C102.312 15.7566 102.418 16.0437 102.418 16.4128V16.7615C102.418 17.1238 102.312 17.4109 102.101 17.6228C101.896 17.8347 101.608 17.9407 101.239 17.9407H99.9678C99.6055 17.9407 99.3184 17.8347 99.1064 17.6228C98.8945 17.4109 98.7886 17.1238 98.7886 16.7615ZM98.8296 29.5173V19.7864C98.8296 19.6018 98.8877 19.4514 99.0039 19.3352C99.127 19.219 99.2773 19.1609 99.4551 19.1609H101.752C101.937 19.1609 102.087 19.2224 102.203 19.3455C102.319 19.4617 102.377 19.6086 102.377 19.7864V29.5173C102.377 29.7019 102.316 29.8523 102.193 29.9685C102.077 30.0847 101.93 30.1428 101.752 30.1428H99.4551C99.2705 30.1428 99.1201 30.0847 99.0039 29.9685C98.8877 29.8523 98.8296 29.7019 98.8296 29.5173Z" fill="#7452FA"/>
<path d="M105.905 28.8713C104.838 27.887 104.305 26.4377 104.305 24.5237C104.305 22.6028 104.838 21.1536 105.905 20.176C106.971 19.1917 108.502 18.6995 110.499 18.6995C112.501 18.6995 114.036 19.1917 115.103 20.176C116.169 21.1536 116.702 22.6028 116.702 24.5237C116.702 26.4377 116.169 27.887 115.103 28.8713C114.036 29.8557 112.501 30.3479 110.499 30.3479C108.502 30.3479 106.971 29.8557 105.905 28.8713ZM108.499 21.8577C108.075 22.4114 107.863 23.2966 107.863 24.5134C107.863 25.7302 108.075 26.6189 108.499 27.1794C108.923 27.74 109.589 28.0203 110.499 28.0203C111.415 28.0203 112.084 27.74 112.508 27.1794C112.939 26.6189 113.154 25.7302 113.154 24.5134C113.154 23.2966 112.939 22.4114 112.508 21.8577C112.084 21.304 111.415 21.0271 110.499 21.0271C109.589 21.0271 108.923 21.304 108.499 21.8577Z" fill="#7452FA"/>
<defs>
<linearGradient id="paint0_linear_2668_10504" x1="32.5052" y1="16.3886" x2="2.54607" y2="36.3278" gradientUnits="userSpaceOnUse">
<stop stop-color="#FF44B4"/>
<stop offset="1" stop-color="#FFAB48"/>
</linearGradient>
<linearGradient id="paint1_linear_2668_10504" x1="32.5053" y1="0.0941916" x2="2.25905" y2="19.7287" gradientUnits="userSpaceOnUse">
<stop stop-color="#44B3FF"/>
<stop offset="1" stop-color="#A448FF"/>
</linearGradient>
<linearGradient id="paint2_linear_2668_10504" x1="33.2892" y1="23.4561" x2="1.52657" y2="3.84153" gradientUnits="userSpaceOnUse">
<stop stop-color="#FF44A9"/>
<stop offset="1" stop-color="#7452FA"/>
</linearGradient>
</defs>
</svg>
